<?xml version="1.0" encoding="UTF-8"?>
<svg xmlns="http://www.w3.org/2000/svg" xmlns:xlink="http://www.w3.org/1999/xlink" width="25px" height="25px" viewBox="0 0 25 25" version="1.1">
<g id="surface1">
<path style=" stroke:none;fill-rule:evenodd;fill:rgb(92.156863%,0.392157%,0%);fill-opacity:1;" d="M 12.5 0 C 19.402344 0 25 5.597656 25 12.5 C 25 19.402344 19.402344 25 12.5 25 C 5.597656 25 0 19.402344 0 12.5 C 0 5.597656 5.597656 0 12.5 0 Z M 12.5 0 "/>
<path style=" stroke:none;fill-rule:evenodd;fill:rgb(100%,100%,100%);fill-opacity:1;" d="M 7.199219 10.117188 C 6.757812 9.683594 6.40625 9.410156 6.957031 8.875 L 8.734375 7.140625 C 9.296875 6.570312 9.628906 6.597656 10.160156 7.140625 L 12.546875 9.535156 L 14.929688 7.152344 C 15.367188 6.710938 15.636719 6.355469 16.171875 6.90625 L 17.902344 8.683594 C 18.472656 9.25 18.445312 9.582031 17.902344 10.109375 L 15.515625 12.5 L 17.902344 14.894531 C 18.441406 15.417969 18.472656 15.75 17.902344 16.320312 L 16.167969 18.097656 C 15.632812 18.648438 15.351562 18.300781 14.925781 17.855469 L 12.546875 15.460938 L 10.152344 17.863281 C 9.628906 18.402344 9.296875 18.429688 8.726562 17.863281 L 6.949219 16.128906 C 6.398438 15.59375 6.746094 15.316406 7.191406 14.886719 L 9.582031 12.5 Z M 7.199219 10.117188 "/>
</g>
</svg>
